<svg id="text" xmlns="http://www.w3.org/2000/svg" viewBox="0 0 341.8 114.47"><defs><style>.cls-1{font-size:79.6px;font-family:Montserrat-Bold, Montserrat;font-weight:700;}.cls-1,.cls-4{fill:#00aae3;}.cls-2{letter-spacing:-0.01em;}.cls-3{fill:#f26b6c;letter-spacing:0em;}</style></defs><text class="cls-1" transform="translate(88.93 76.03)"><tspan class="cls-2">w</tspan><tspan x="73.39" y="0">e</tspan><tspan class="cls-3" x="123.61" y="0">Pic</tspan></text><path class="cls-4" d="M147.62,199.09a41.86,41.86,0,1,1-57.41,59.59.09.09,0,0,1,.14-.12,41.21,41.21,0,1,0,57.16-59.34A.09.09,0,0,1,147.62,199.09Z" transform="translate(-80.87 -190.55)"/><path class="cls-4" d="M149.11,261.7h8.83a10.89,10.89,0,0,1,10.89,10.89v2.5a1.52,1.52,0,0,1-1.52,1.52H149a1.36,1.36,0,0,1-1.36-1.36v-12A1.52,1.52,0,0,1,149.11,261.7Z" transform="translate(143.52 -226.51) rotate(42.69)"/><path class="cls-4" d="M123.2,190.55a42.33,42.33,0,0,0,0,84.66,41.82,41.82,0,0,0,8.65-.9l1-.22,1-.25q.49-.12,1-.27c.54-.15,1.08-.32,1.6-.49l.17-.05c.38-.12.76-.25,1.13-.39h0l1-.36c.63-.25,1.25-.51,1.87-.79q.49-.21,1-.45c.59-.28,1.17-.58,1.75-.9s1.17-.65,1.75-1l.85-.53c.15-.08.29-.18.44-.27l.4-.28c.28-.18.55-.37.83-.57l.81-.59c.54-.38,1.06-.79,1.58-1.23s1-.84,1.52-1.3a40.67,40.67,0,0,0,5.73-6.28,42.33,42.33,0,0,0-34-67.53Zm26.35,20.63a1.06,1.06,0,0,1,1.84,0,35.18,35.18,0,0,1,2.26,30.57,1.06,1.06,0,0,1-1,.68l-19.35,0a1.06,1.06,0,0,1-.92-1.59Zm.93,33.64a1.06,1.06,0,0,1,.92,1.59A35.36,35.36,0,0,1,126,263.71a1.06,1.06,0,0,1-1.08-.52l-9.68-16.82a1.06,1.06,0,0,1,.92-1.59h9.23ZM121.75,262.5a1.06,1.06,0,0,1-.91,1.59h0a35.27,35.27,0,0,1-27.64-13.37,1.07,1.07,0,0,1-.09-1.2l9.71-16.76a1.06,1.06,0,0,1,1.84,0Zm-1-69h0a35.25,35.25,0,0,1,27.66,13.39,1.08,1.08,0,0,1,.09,1.2l-9.72,16.77a1.06,1.06,0,0,1-1.84,0L119.88,195.1A1.06,1.06,0,0,1,120.79,193.51Zm-30.5,17.61a35.38,35.38,0,0,1,25.35-17.23,1.07,1.07,0,0,1,1.08.52l9.65,16.76a1.06,1.06,0,0,1-.92,1.59l-34.24,0A1.06,1.06,0,0,1,90.29,211.12ZM88,215.78a1.07,1.07,0,0,1,1-.68l19.4,0a1.06,1.06,0,0,1,.91,1.59L92.11,246.45a1.07,1.07,0,0,1-1.84,0A35.25,35.25,0,0,1,88,215.78Z" transform="translate(-80.87 -190.55)"/></svg>