<svg id="symbol" xmlns="http://www.w3.org/2000/svg" viewBox="0 0 319.13 326.88"><defs><style>.cls-1{fill:#00aae3;}</style></defs><path class="cls-1" d="M329.92,117.19a150,150,0,0,1,63.63,123.88c-.65,83.26-69.93,150.66-153.17,149A149.94,149.94,0,0,1,124,331a.32.32,0,0,1,.48-.42,147.42,147.42,0,0,0,105.76,43.88c79.14-.3,144.53-63.85,147.13-142.95a147.47,147.47,0,0,0-47.8-113.82A.32.32,0,0,1,329.92,117.19Z" transform="translate(-90.44 -86.56)"/><path class="cls-1" d="M331.35,341.85h63.78A10.89,10.89,0,0,1,406,352.73v41.07a1.52,1.52,0,0,1-1.52,1.52H331.2a1.36,1.36,0,0,1-1.36-1.36v-50.6a1.52,1.52,0,0,1,1.52-1.52Z" transform="translate(256.93 -238.36) rotate(42.69)"/><path class="cls-1" d="M242.31,86.56a151.87,151.87,0,0,0,0,303.74,149.78,149.78,0,0,0,31-3.23c1.22-.25,2.44-.53,3.63-.78s2.4-.58,3.58-.9,2.37-.61,3.56-1c1.93-.54,3.87-1.15,5.74-1.76a3.8,3.8,0,0,0,.61-.18c1.36-.43,2.72-.89,4.05-1.4l0,0,3.41-1.29c2.26-.9,4.48-1.83,6.7-2.84,1.19-.5,2.34-1,3.45-1.61,2.12-1,4.2-2.08,6.28-3.23s4.2-2.33,6.28-3.59c1-.61,2-1.26,3.05-1.9.53-.29,1-.65,1.57-1s1-.65,1.44-1c1-.65,2-1.33,3-2.05s1.93-1.4,2.9-2.12c1.94-1.36,3.81-2.83,5.67-4.41s3.66-3,5.46-4.66a146.1,146.1,0,0,0,20.55-22.54,151.86,151.86,0,0,0-122-242.28Zm94.54,74a3.8,3.8,0,0,1,6.6,0,126.24,126.24,0,0,1,8.11,109.68A3.82,3.82,0,0,1,348,272.7l-69.43-.11a3.8,3.8,0,0,1-3.3-5.71Zm3.33,120.69a3.79,3.79,0,0,1,3.3,5.7A126.84,126.84,0,0,1,252.32,349a3.79,3.79,0,0,1-3.88-1.86l-34.73-60.35a3.8,3.8,0,0,1,3.3-5.7h33.12ZM237.11,344.7a3.8,3.8,0,0,1-3.27,5.71h-.07a126.57,126.57,0,0,1-99.17-48,3.86,3.86,0,0,1-.32-4.31L169.12,238a3.82,3.82,0,0,1,6.6,0ZM233.66,97.18h.11a126.49,126.49,0,0,1,99.24,48,3.86,3.86,0,0,1,.32,4.31l-34.87,60.16a3.8,3.8,0,0,1-6.6,0L230.4,102.88A3.8,3.8,0,0,1,233.66,97.18ZM124.23,160.36a126.92,126.92,0,0,1,91-61.82,3.86,3.86,0,0,1,3.88,1.87l34.62,60.13a3.8,3.8,0,0,1-3.3,5.7l-122.85-.17A3.8,3.8,0,0,1,124.23,160.36Zm-8.14,16.72a3.84,3.84,0,0,1,3.55-2.44l69.6.11a3.8,3.8,0,0,1,3.27,5.7L130.76,287.12a3.83,3.83,0,0,1-6.6,0,126.53,126.53,0,0,1-8.07-110Z" transform="translate(-90.44 -86.56)"/></svg>